<?xml version="1.0" encoding="UTF-8"?>
<svg width="406px" height="99px" viewBox="0 0 406 99" version="1.1" xmlns="http://www.w3.org/2000/svg" xmlns:xlink="http://www.w3.org/1999/xlink">
    <!-- Generator: Sketch 53 (72520) - https://sketchapp.com -->
    <title>logo-kambria</title>
    <desc>Created with Sketch.</desc>
    <defs>
        <path d="M112.186,87.086 L110.106,92 L108,92 L115.982,73.826 L123.782,92 L121.65,92 L119.596,87.086 L112.186,87.086 Z M115.956,78.35 L112.992,85.292 L118.842,85.292 L115.956,78.35 Z M133.792,84.434 C133.18533,83.77533 132.635002,83.3160013 132.141,83.056 C131.646998,82.7959987 131.07067,82.666 130.412,82.666 C129.874664,82.666 129.372002,82.7656657 128.904,82.965 C128.435998,83.1643343 128.028668,83.4416649 127.682,83.797 C127.335332,84.1523351 127.066668,84.5726642 126.876,85.058 C126.685332,85.5433358 126.59,86.0719971 126.59,86.644 C126.59,87.2160029 126.685332,87.7446642 126.876,88.23 C127.066668,88.7153358 127.330998,89.1356649 127.669,89.491 C128.007002,89.8463351 128.405664,90.1236657 128.865,90.323 C129.324336,90.5223343 129.822664,90.622 130.36,90.622 C131.036003,90.622 131.638331,90.4833347 132.167,90.206 C132.695669,89.9286653 133.26333,89.4433368 133.87,88.75 L133.87,91.194 C133.21133,91.6100021 132.626336,91.9003325 132.115,92.065 C131.603664,92.2296675 131.036003,92.312 130.412,92.312 C129.614663,92.312 128.865004,92.1646681 128.163,91.87 C127.460996,91.5753319 126.854336,91.1766692 126.343,90.674 C125.831664,90.1713308 125.428668,89.5776701 125.134,88.893 C124.839332,88.2083299 124.692,87.4673373 124.692,86.67 C124.692,85.8553293 124.839332,85.1013368 125.134,84.408 C125.428668,83.7146632 125.831664,83.1166692 126.343,82.614 C126.854336,82.1113308 127.460996,81.7126681 128.163,81.418 C128.865004,81.1233319 129.623329,80.976 130.438,80.976 C131.079337,80.976 131.659997,81.0539992 132.18,81.21 C132.700003,81.3660008 133.237331,81.6259982 133.792,81.99 L133.792,84.434 Z M144.712,84.434 C144.10533,83.77533 143.555002,83.3160013 143.061,83.056 C142.566998,82.7959987 141.99067,82.666 141.332,82.666 C140.794664,82.666 140.292002,82.7656657 139.824,82.965 C139.355998,83.1643343 138.948668,83.4416649 138.602,83.797 C138.255332,84.1523351 137.986668,84.5726642 137.796,85.058 C137.605332,85.5433358 137.51,86.0719971 137.51,86.644 C137.51,87.2160029 137.605332,87.7446642 137.796,88.23 C137.986668,88.7153358 138.250998,89.1356649 138.589,89.491 C138.927002,89.8463351 139.325664,90.1236657 139.785,90.323 C140.244336,90.5223343 140.742664,90.622 141.28,90.622 C141.956003,90.622 142.558331,90.4833347 143.087,90.206 C143.615669,89.9286653 144.18333,89.4433368 144.79,88.75 L144.79,91.194 C144.13133,91.6100021 143.546336,91.9003325 143.035,92.065 C142.523664,92.2296675 141.956003,92.312 141.332,92.312 C140.534663,92.312 139.785004,92.1646681 139.083,91.87 C138.380996,91.5753319 137.774336,91.1766692 137.263,90.674 C136.751664,90.1713308 136.348668,89.5776701 136.054,88.893 C135.759332,88.2083299 135.612,87.4673373 135.612,86.67 C135.612,85.8553293 135.759332,85.1013368 136.054,84.408 C136.348668,83.7146632 136.751664,83.1166692 137.263,82.614 C137.774336,82.1113308 138.380996,81.7126681 139.083,81.418 C139.785004,81.1233319 140.543329,80.976 141.358,80.976 C141.999337,80.976 142.579997,81.0539992 143.1,81.21 C143.620003,81.3660008 144.157331,81.6259982 144.712,81.99 L144.712,84.434 Z M148.56,86.982 C148.612,88.0913389 148.949997,88.97533 149.574,89.634 C150.198003,90.29267 151.003995,90.622 151.992,90.622 C152.720004,90.622 153.326664,90.4530017 153.812,90.115 C154.297336,89.7769983 154.799997,89.1920042 155.32,88.36 L156.88,89.244 C156.27333,90.3013386 155.567004,91.0769975 154.761,91.571 C153.954996,92.0650025 153.006005,92.312 151.914,92.312 C151.133996,92.312 150.419003,92.1733347 149.769,91.896 C149.118997,91.6186653 148.560002,91.2330025 148.092,90.739 C147.623998,90.2449975 147.260001,89.6513368 147,88.958 C146.739999,88.2646632 146.61,87.5020042 146.61,86.67 C146.61,85.8206624 146.735665,85.0493368 146.987,84.356 C147.238335,83.6626632 147.593664,83.0646692 148.053,82.562 C148.512336,82.0593308 149.062663,81.6693347 149.704,81.392 C150.345337,81.1146653 151.055996,80.976 151.836,80.976 C152.616004,80.976 153.32233,81.110332 153.955,81.379 C154.58767,81.647668 155.129331,82.0333308 155.58,82.536 C156.030669,83.0386692 156.377332,83.6366632 156.62,84.33 C156.862668,85.0233368 156.984,85.803329 156.984,86.67 L156.984,86.982 L148.56,86.982 Z M155.034,85.422 C154.860666,84.5726624 154.488003,83.8966692 153.916,83.394 C153.343997,82.8913308 152.659337,82.64 151.862,82.64 C151.081996,82.64 150.393003,82.8999974 149.795,83.42 C149.196997,83.9400026 148.828667,84.6073293 148.69,85.422 L155.034,85.422 Z M161.378,92 L159.532,92 L159.532,73.046 L161.378,73.046 L161.378,92 Z M165.902,86.982 C165.954,88.0913389 166.291997,88.97533 166.916,89.634 C167.540003,90.29267 168.345995,90.622 169.334,90.622 C170.062004,90.622 170.668664,90.4530017 171.154,90.115 C171.639336,89.7769983 172.141997,89.1920042 172.662,88.36 L174.222,89.244 C173.61533,90.3013386 172.909004,91.0769975 172.103,91.571 C171.296996,92.0650025 170.348005,92.312 169.256,92.312 C168.475996,92.312 167.761003,92.1733347 167.111,91.896 C166.460997,91.6186653 165.902002,91.2330025 165.434,90.739 C164.965998,90.2449975 164.602001,89.6513368 164.342,88.958 C164.081999,88.2646632 163.952,87.5020042 163.952,86.67 C163.952,85.8206624 164.077665,85.0493368 164.329,84.356 C164.580335,83.6626632 164.935664,83.0646692 165.395,82.562 C165.854336,82.0593308 166.404663,81.6693347 167.046,81.392 C167.687337,81.1146653 168.397996,80.976 169.178,80.976 C169.958004,80.976 170.66433,81.110332 171.297,81.379 C171.92967,81.647668 172.471331,82.0333308 172.922,82.536 C173.372669,83.0386692 173.719332,83.6366632 173.962,84.33 C174.204668,85.0233368 174.326,85.803329 174.326,86.67 L174.326,86.982 L165.902,86.982 Z M172.376,85.422 C172.202666,84.5726624 171.830003,83.8966692 171.258,83.394 C170.685997,82.8913308 170.001337,82.64 169.204,82.64 C168.423996,82.64 167.735003,82.8999974 167.137,83.42 C166.538997,83.9400026 166.170667,84.6073293 166.032,85.422 L172.376,85.422 Z M178.72,81.21 L178.72,82.38 C178.962668,82.0853319 179.179332,81.8470009 179.37,81.665 C179.560668,81.4829991 179.746999,81.3400005 179.929,81.236 C180.111001,81.1319995 180.297332,81.0583336 180.488,81.015 C180.678668,80.9716665 180.903999,80.95 181.164,80.95 C181.458668,80.95 181.722999,80.980333 181.957,81.041 C182.191001,81.101667 182.472665,81.2273324 182.802,81.418 L181.944,83.082 C181.701332,82.9433326 181.506334,82.8480003 181.359,82.796 C181.211666,82.7439997 181.042668,82.718 180.852,82.718 C180.505332,82.718 180.171668,82.8089991 179.851,82.991 C179.530332,83.1730009 179.292001,83.4113319 179.136,83.706 C178.997333,83.9660013 178.893334,84.2996646 178.824,84.707 C178.754666,85.1143354 178.72,85.64733 178.72,86.306 L178.72,92 L176.874,92 L176.874,81.21 L178.72,81.21 Z M193.982,81.21 L193.982,92 L192.136,92 L192.136,90.492 C191.615997,91.1160031 191.061336,91.5753319 190.472,91.87 C189.882664,92.1646681 189.198004,92.312 188.418,92.312 C187.672663,92.312 186.979337,92.1690014 186.338,91.883 C185.696663,91.5969986 185.146336,91.1983359 184.687,90.687 C184.227664,90.1756641 183.868001,89.5690035 183.608,88.867 C183.347999,88.1649965 183.218,87.3980042 183.218,86.566 C183.218,85.7513293 183.347999,85.0016701 183.608,84.317 C183.868001,83.6323299 184.227664,83.0386692 184.687,82.536 C185.146336,82.0333308 185.687997,81.6433347 186.312,81.366 C186.936003,81.0886653 187.620663,80.95 188.366,80.95 C189.146004,80.95 189.834997,81.0929986 190.433,81.379 C191.031003,81.6650014 191.598664,82.1199969 192.136,82.744 L192.136,81.21 L193.982,81.21 Z M188.678,82.64 C188.175331,82.64 187.707335,82.7396657 187.274,82.939 C186.840665,83.1383343 186.463668,83.4113316 186.143,83.758 C185.822332,84.1046684 185.571001,84.516331 185.389,84.993 C185.206999,85.4696691 185.116,85.9853306 185.116,86.54 C185.116,87.1293363 185.202666,87.6753308 185.376,88.178 C185.549334,88.6806692 185.791998,89.1139982 186.104,89.478 C186.416002,89.8420018 186.788665,90.1236657 187.222,90.323 C187.655336,90.5223343 188.131997,90.622 188.652,90.622 C189.189336,90.622 189.678998,90.5223343 190.121,90.323 C190.563002,90.1236657 190.944332,89.8463351 191.265,89.491 C191.585668,89.1356649 191.832666,88.7110025 192.006,88.217 C192.179334,87.7229975 192.266,87.1813363 192.266,86.592 C192.266,85.4133274 191.932337,84.4600036 191.265,83.732 C190.597663,83.0039964 189.735339,82.64 188.678,82.64 Z M199.338,92 L197.492,92 L197.492,82.926 L196.374,82.926 L196.374,81.21 L197.492,81.21 L197.492,77.31 L199.338,77.31 L199.338,81.21 L201.262,81.21 L201.262,82.926 L199.338,82.926 L199.338,92 Z M204.85,92 L203.004,92 L203.004,81.21 L204.85,81.21 L204.85,92 Z M203.94,75.802 C204.304002,75.802 204.615999,75.9319987 204.876,76.192 C205.136001,76.4520013 205.266,76.7639982 205.266,77.128 C205.266,77.4920018 205.136001,77.8039987 204.876,78.064 C204.615999,78.3240013 204.304002,78.454 203.94,78.454 C203.575998,78.454 203.264001,78.3240013 203.004,78.064 C202.743999,77.8039987 202.614,77.4833352 202.614,77.102 C202.614,76.7553316 202.743999,76.4520013 203.004,76.192 C203.264001,75.9319987 203.575998,75.802 203.94,75.802 Z M210.05,81.21 L210.05,82.51 C210.518002,81.9379971 210.985998,81.5350012 211.454,81.301 C211.922002,81.0669988 212.493997,80.95 213.17,80.95 C213.82867,80.95 214.435331,81.084332 214.99,81.353 C215.544669,81.621668 215.969332,81.9813311 216.264,82.432 C216.472001,82.7786684 216.623666,83.1686645 216.719,83.602 C216.814334,84.0353355 216.862,84.6073298 216.862,85.318 L216.862,92 L215.016,92 L215.016,85.63 C215.016,85.0579971 214.99,84.6203349 214.938,84.317 C214.886,84.0136652 214.790667,83.7493345 214.652,83.524 C214.287998,82.9173303 213.646671,82.614 212.728,82.614 C211.791995,82.614 211.111669,82.9303302 210.687,83.563 C210.262331,84.1956698 210.05,85.213993 210.05,86.618 L210.05,92 L208.204,92 L208.204,81.21 L210.05,81.21 Z M230.226,91.766 C230.226,92.840672 230.152334,93.6856636 230.005,94.301 C229.857666,94.9163364 229.584669,95.4839974 229.186,96.004 C228.700664,96.6453365 228.085337,97.1393316 227.34,97.486 C226.594663,97.8326684 225.771338,98.006 224.87,98.006 C223.309992,98.006 222.062005,97.5640044 221.126,96.68 C220.189995,95.7959956 219.696,94.591341 219.644,93.066 L221.464,93.066 C221.498667,93.5166689 221.555,93.8719987 221.633,94.132 C221.711,94.3920013 221.827999,94.6433321 221.984,94.886 C222.261335,95.3366689 222.664331,95.6876654 223.193,95.939 C223.721669,96.1903346 224.297997,96.316 224.922,96.316 C225.511336,96.316 226.044331,96.1990012 226.521,95.965 C226.997669,95.7309988 227.383332,95.4060021 227.678,94.99 C228.146002,94.3486635 228.38,93.3780065 228.38,92.078 L228.38,90.518 C227.305328,91.6966726 226.040007,92.286 224.584,92.286 C223.855996,92.286 223.17567,92.1430014 222.543,91.857 C221.91033,91.5709986 221.364336,91.1766692 220.905,90.674 C220.445664,90.1713308 220.086001,89.5733368 219.826,88.88 C219.565999,88.1866632 219.436,87.4413373 219.436,86.644 C219.436,85.8293293 219.565999,85.0710035 219.826,84.369 C220.086001,83.6669965 220.449998,83.0646692 220.918,82.562 C221.386002,82.0593308 221.940663,81.6650014 222.582,81.379 C223.223337,81.0929986 223.916663,80.95 224.662,80.95 C226.170008,80.95 227.409328,81.547994 228.38,82.744 L228.38,81.21 L230.226,81.21 L230.226,91.766 Z M224.87,82.614 C224.349997,82.614 223.873336,82.7136657 223.44,82.913 C223.006665,83.1123343 222.634002,83.3896649 222.322,83.745 C222.009998,84.1003351 221.767334,84.5249975 221.594,85.019 C221.420666,85.5130025 221.334,86.0459971 221.334,86.618 C221.334,87.2073363 221.420666,87.7489975 221.594,88.243 C221.767334,88.7370025 222.009998,89.1573316 222.322,89.504 C222.634002,89.8506684 223.002331,90.1236657 223.427,90.323 C223.851669,90.5223343 224.323997,90.622 224.844,90.622 C225.364003,90.622 225.844998,90.5223343 226.287,90.323 C226.729002,90.1236657 227.110332,89.8506684 227.431,89.504 C227.751668,89.1573316 228.002999,88.7413358 228.185,88.256 C228.367001,87.7706642 228.458,87.2333363 228.458,86.644 C228.458,85.2919932 228.068004,84.2606702 227.288,83.55 C226.57733,82.9259969 225.771338,82.614 224.87,82.614 Z M248.53,74.372 C249.760673,74.372 250.921995,74.610331 252.014,75.087 C253.106005,75.5636691 254.059329,76.2093293 254.874,77.024 C255.688671,77.8386707 256.334331,78.7876613 256.811,79.871 C257.287669,80.9543388 257.526,82.1113272 257.526,83.342 C257.526,84.5900062 257.287669,85.7556613 256.811,86.839 C256.334331,87.9223388 255.684337,88.8713293 254.861,89.686 C254.037663,90.5006707 253.071339,91.1419977 251.962,91.61 C250.852661,92.0780023 249.674006,92.312 248.426,92.312 C247.177994,92.312 245.964673,92.043336 244.786,91.506 C243.607327,90.968664 242.584671,90.2233381 241.718,89.27 C240.989996,88.4379958 240.435335,87.5193384 240.054,86.514 C239.672665,85.5086616 239.482,84.4166726 239.482,83.238 C239.482,82.041994 239.724664,80.906672 240.21,79.832 C240.695336,78.757328 241.349663,77.817004 242.173,77.011 C242.996337,76.204996 243.958328,75.5636691 245.059,75.087 C246.159672,74.610331 247.316661,74.372 248.53,74.372 Z M248.504,76.192 C247.533328,76.192 246.619004,76.3783315 245.761,76.751 C244.902996,77.1236685 244.153337,77.6306635 243.512,78.272 C242.870663,78.9133365 242.363669,79.6586624 241.991,80.508 C241.618331,81.3573376 241.432,82.2673285 241.432,83.238 C241.432,85.3700107 242.168659,87.1293264 243.642,88.516 C244.30067,89.1400031 245.050329,89.6253316 245.891,89.972 C246.731671,90.3186684 247.585329,90.492 248.452,90.492 C249.440005,90.492 250.367329,90.3056685 251.234,89.933 C252.100671,89.5603315 252.854663,89.0533365 253.496,88.412 C254.137337,87.7706635 254.644331,87.0123377 255.017,86.137 C255.389669,85.2616623 255.576,84.3300049 255.576,83.342 C255.576,82.3539951 255.389669,81.426671 255.017,80.56 C254.644331,79.693329 254.14167,78.9350033 253.509,78.285 C252.87633,77.6349968 252.131004,77.1236685 251.273,76.751 C250.414996,76.3783315 249.492005,76.192 248.504,76.192 Z M260.282,98.084 L260.282,81.21 L262.128,81.21 L262.102,82.744 C262.656669,82.1199969 263.228664,81.6650014 263.818,81.379 C264.407336,81.0929986 265.08333,80.95 265.846,80.95 C266.60867,80.95 267.30633,81.0929986 267.939,81.379 C268.57167,81.6650014 269.117664,82.0636641 269.577,82.575 C270.036336,83.0863359 270.395999,83.6886632 270.656,84.382 C270.916001,85.0753368 271.046,85.8379958 271.046,86.67 C271.046,87.4846707 270.916001,88.2343299 270.656,88.919 C270.395999,89.6036701 270.036336,90.1973308 269.577,90.7 C269.117664,91.2026692 268.576003,91.5969986 267.952,91.883 C267.327997,92.1690014 266.643337,92.312 265.898,92.312 C265.117996,92.312 264.429003,92.1690014 263.831,91.883 C263.232997,91.5969986 262.665336,91.1333365 262.128,90.492 L262.128,98.084 L260.282,98.084 Z M265.612,82.64 C265.091997,82.64 264.611002,82.7396657 264.169,82.939 C263.726998,83.1383343 263.345668,83.4156649 263.025,83.771 C262.704332,84.1263351 262.453001,84.5509975 262.271,85.045 C262.088999,85.5390025 261.998,86.0806637 261.998,86.67 C261.998,87.2420029 262.088999,87.7706642 262.271,88.256 C262.453001,88.7413358 262.704332,89.1616649 263.025,89.517 C263.345668,89.8723351 263.726998,90.1453324 264.169,90.336 C264.611002,90.5266676 265.091997,90.622 265.612,90.622 C266.114669,90.622 266.582665,90.5223343 267.016,90.323 C267.449336,90.1236657 267.821998,89.8506684 268.134,89.504 C268.446002,89.1573316 268.692999,88.7456691 268.875,88.269 C269.057001,87.792331 269.148,87.2766694 269.148,86.722 C269.148,86.1326637 269.061334,85.5866692 268.888,85.084 C268.714666,84.5813308 268.472002,84.1480018 268.16,83.784 C267.847998,83.4199982 267.475336,83.1383343 267.042,82.939 C266.608665,82.7396657 266.132003,82.64 265.612,82.64 Z M274.816,86.982 C274.868,88.0913389 275.205997,88.97533 275.83,89.634 C276.454003,90.29267 277.259995,90.622 278.248,90.622 C278.976004,90.622 279.582664,90.4530017 280.068,90.115 C280.553336,89.7769983 281.055997,89.1920042 281.576,88.36 L283.136,89.244 C282.52933,90.3013386 281.823004,91.0769975 281.017,91.571 C280.210996,92.0650025 279.262005,92.312 278.17,92.312 C277.389996,92.312 276.675003,92.1733347 276.025,91.896 C275.374997,91.6186653 274.816002,91.2330025 274.348,90.739 C273.879998,90.2449975 273.516001,89.6513368 273.256,88.958 C272.995999,88.2646632 272.866,87.5020042 272.866,86.67 C272.866,85.8206624 272.991665,85.0493368 273.243,84.356 C273.494335,83.6626632 273.849664,83.0646692 274.309,82.562 C274.768336,82.0593308 275.318663,81.6693347 275.96,81.392 C276.601337,81.1146653 277.311996,80.976 278.092,80.976 C278.872004,80.976 279.57833,81.110332 280.211,81.379 C280.84367,81.647668 281.385331,82.0333308 281.836,82.536 C282.286669,83.0386692 282.633332,83.6366632 282.876,84.33 C283.118668,85.0233368 283.24,85.803329 283.24,86.67 L283.24,86.982 L274.816,86.982 Z M281.29,85.422 C281.116666,84.5726624 280.744003,83.8966692 280.172,83.394 C279.599997,82.8913308 278.915337,82.64 278.118,82.64 C277.337996,82.64 276.649003,82.8999974 276.051,83.42 C275.452997,83.9400026 275.084667,84.6073293 274.946,85.422 L281.29,85.422 Z M287.634,81.21 L287.634,82.51 C288.102002,81.9379971 288.569998,81.5350012 289.038,81.301 C289.506002,81.0669988 290.077997,80.95 290.754,80.95 C291.41267,80.95 292.019331,81.084332 292.574,81.353 C293.128669,81.621668 293.553332,81.9813311 293.848,82.432 C294.056001,82.7786684 294.207666,83.1686645 294.303,83.602 C294.398334,84.0353355 294.446,84.6073298 294.446,85.318 L294.446,92 L292.6,92 L292.6,85.63 C292.6,85.0579971 292.574,84.6203349 292.522,84.317 C292.47,84.0136652 292.374667,83.7493345 292.236,83.524 C291.871998,82.9173303 291.230671,82.614 290.312,82.614 C289.375995,82.614 288.695669,82.9303302 288.271,83.563 C287.846331,84.1956698 287.634,85.213993 287.634,86.618 L287.634,92 L285.788,92 L285.788,81.21 L287.634,81.21 Z M306.64,92 L304.69,92 L304.69,74.658 L306.64,74.658 L306.64,92 Z M312.23,81.21 L312.23,82.51 C312.698002,81.9379971 313.165998,81.5350012 313.634,81.301 C314.102002,81.0669988 314.673997,80.95 315.35,80.95 C316.00867,80.95 316.615331,81.084332 317.17,81.353 C317.724669,81.621668 318.149332,81.9813311 318.444,82.432 C318.652001,82.7786684 318.803666,83.1686645 318.899,83.602 C318.994334,84.0353355 319.042,84.6073298 319.042,85.318 L319.042,92 L317.196,92 L317.196,85.63 C317.196,85.0579971 317.17,84.6203349 317.118,84.317 C317.066,84.0136652 316.970667,83.7493345 316.832,83.524 C316.467998,82.9173303 315.826671,82.614 314.908,82.614 C313.971995,82.614 313.291669,82.9303302 312.867,83.563 C312.442331,84.1956698 312.23,85.213993 312.23,86.618 L312.23,92 L310.384,92 L310.384,81.21 L312.23,81.21 Z M324.216,81.21 L324.216,82.51 C324.684002,81.9379971 325.151998,81.5350012 325.62,81.301 C326.088002,81.0669988 326.659997,80.95 327.336,80.95 C327.99467,80.95 328.601331,81.084332 329.156,81.353 C329.710669,81.621668 330.135332,81.9813311 330.43,82.432 C330.638001,82.7786684 330.789666,83.1686645 330.885,83.602 C330.980334,84.0353355 331.028,84.6073298 331.028,85.318 L331.028,92 L329.182,92 L329.182,85.63 C329.182,85.0579971 329.156,84.6203349 329.104,84.317 C329.052,84.0136652 328.956667,83.7493345 328.818,83.524 C328.453998,82.9173303 327.812671,82.614 326.894,82.614 C325.957995,82.614 325.277669,82.9303302 324.853,83.563 C324.428331,84.1956698 324.216,85.213993 324.216,86.618 L324.216,92 L322.37,92 L322.37,81.21 L324.216,81.21 Z M339.322,80.976 C340.119337,80.976 340.864663,81.1233319 341.558,81.418 C342.251337,81.7126681 342.853664,82.1113308 343.365,82.614 C343.876336,83.1166692 344.279332,83.7146632 344.574,84.408 C344.868668,85.1013368 345.016,85.8466627 345.016,86.644 C345.016,87.4413373 344.868668,88.1866632 344.574,88.88 C344.279332,89.5733368 343.876336,90.1713308 343.365,90.674 C342.853664,91.1766692 342.247004,91.5753319 341.545,91.87 C340.842996,92.1646681 340.084671,92.312 339.27,92.312 C338.472663,92.312 337.727337,92.1646681 337.034,91.87 C336.340663,91.5753319 335.742669,91.1680026 335.24,90.648 C334.737331,90.1279974 334.338668,89.5170035 334.044,88.815 C333.749332,88.1129965 333.602,87.3546707 333.602,86.54 C333.602,85.7773295 333.753665,85.0580034 334.057,84.382 C334.360335,83.7059966 334.771997,83.1166692 335.292,82.614 C335.812003,82.1113308 336.418663,81.7126681 337.112,81.418 C337.805337,81.1233319 338.541996,80.976 339.322,80.976 Z M339.296,82.666 C338.758664,82.666 338.256002,82.7656657 337.788,82.965 C337.319998,83.1643343 336.917002,83.4373316 336.579,83.784 C336.240998,84.1306684 335.976668,84.5466642 335.786,85.032 C335.595332,85.5173358 335.5,86.0373306 335.5,86.592 C335.5,87.1813363 335.590999,87.7229975 335.773,88.217 C335.955001,88.7110025 336.214998,89.1356649 336.553,89.491 C336.891002,89.8463351 337.289664,90.1236657 337.749,90.323 C338.208336,90.5223343 338.715331,90.622 339.27,90.622 C339.824669,90.622 340.340331,90.5223343 340.817,90.323 C341.293669,90.1236657 341.700998,89.8506684 342.039,89.504 C342.377002,89.1573316 342.641332,88.7413358 342.832,88.256 C343.022668,87.7706642 343.118,87.2333363 343.118,86.644 C343.118,86.0719971 343.022668,85.5390025 342.832,85.045 C342.641332,84.5509975 342.377002,84.1306684 342.039,83.784 C341.700998,83.4373316 341.298002,83.1643343 340.83,82.965 C340.361998,82.7656657 339.850669,82.666 339.296,82.666 Z M350.84,88.464 L354.038,81.21 L356.118,81.21 L350.84,92.728 L345.536,81.21 L347.616,81.21 L350.84,88.464 Z M367.428,81.21 L367.428,92 L365.582,92 L365.582,90.492 C365.061997,91.1160031 364.507336,91.5753319 363.918,91.87 C363.328664,92.1646681 362.644004,92.312 361.864,92.312 C361.118663,92.312 360.425337,92.1690014 359.784,91.883 C359.142663,91.5969986 358.592336,91.1983359 358.133,90.687 C357.673664,90.1756641 357.314001,89.5690035 357.054,88.867 C356.793999,88.1649965 356.664,87.3980042 356.664,86.566 C356.664,85.7513293 356.793999,85.0016701 357.054,84.317 C357.314001,83.6323299 357.673664,83.0386692 358.133,82.536 C358.592336,82.0333308 359.133997,81.6433347 359.758,81.366 C360.382003,81.0886653 361.066663,80.95 361.812,80.95 C362.592004,80.95 363.280997,81.0929986 363.879,81.379 C364.477003,81.6650014 365.044664,82.1199969 365.582,82.744 L365.582,81.21 L367.428,81.21 Z M362.124,82.64 C361.621331,82.64 361.153336,82.7396657 360.72,82.939 C360.286665,83.1383343 359.909668,83.4113316 359.589,83.758 C359.268332,84.1046684 359.017001,84.516331 358.835,84.993 C358.652999,85.4696691 358.562,85.9853306 358.562,86.54 C358.562,87.1293363 358.648666,87.6753308 358.822,88.178 C358.995334,88.6806692 359.237998,89.1139982 359.55,89.478 C359.862002,89.8420018 360.234665,90.1236657 360.668,90.323 C361.101336,90.5223343 361.577997,90.622 362.098,90.622 C362.635336,90.622 363.124998,90.5223343 363.567,90.323 C364.009002,90.1236657 364.390332,89.8463351 364.711,89.491 C365.031668,89.1356649 365.278666,88.7110025 365.452,88.217 C365.625334,87.7229975 365.712,87.1813363 365.712,86.592 C365.712,85.4133274 365.378337,84.4600036 364.711,83.732 C364.043663,83.0039964 363.181339,82.64 362.124,82.64 Z M372.784,92 L370.938,92 L370.938,82.926 L369.82,82.926 L369.82,81.21 L370.938,81.21 L370.938,77.31 L372.784,77.31 L372.784,81.21 L374.708,81.21 L374.708,82.926 L372.784,82.926 L372.784,92 Z M378.296,92 L376.45,92 L376.45,81.21 L378.296,81.21 L378.296,92 Z M377.386,75.802 C377.750002,75.802 378.061999,75.9319987 378.322,76.192 C378.582001,76.4520013 378.712,76.7639982 378.712,77.128 C378.712,77.4920018 378.582001,77.8039987 378.322,78.064 C378.061999,78.3240013 377.750002,78.454 377.386,78.454 C377.021998,78.454 376.710001,78.3240013 376.45,78.064 C376.189999,77.8039987 376.06,77.4833352 376.06,77.102 C376.06,76.7553316 376.189999,76.4520013 376.45,76.192 C376.710001,75.9319987 377.021998,75.802 377.386,75.802 Z M386.616,80.976 C387.413337,80.976 388.158663,81.1233319 388.852,81.418 C389.545337,81.7126681 390.147664,82.1113308 390.659,82.614 C391.170336,83.1166692 391.573332,83.7146632 391.868,84.408 C392.162668,85.1013368 392.31,85.8466627 392.31,86.644 C392.31,87.4413373 392.162668,88.1866632 391.868,88.88 C391.573332,89.5733368 391.170336,90.1713308 390.659,90.674 C390.147664,91.1766692 389.541004,91.5753319 388.839,91.87 C388.136996,92.1646681 387.378671,92.312 386.564,92.312 C385.766663,92.312 385.021337,92.1646681 384.328,91.87 C383.634663,91.5753319 383.036669,91.1680026 382.534,90.648 C382.031331,90.1279974 381.632668,89.5170035 381.338,88.815 C381.043332,88.1129965 380.896,87.3546707 380.896,86.54 C380.896,85.7773295 381.047665,85.0580034 381.351,84.382 C381.654335,83.7059966 382.065997,83.1166692 382.586,82.614 C383.106003,82.1113308 383.712663,81.7126681 384.406,81.418 C385.099337,81.1233319 385.835996,80.976 386.616,80.976 Z M386.59,82.666 C386.052664,82.666 385.550002,82.7656657 385.082,82.965 C384.613998,83.1643343 384.211002,83.4373316 383.873,83.784 C383.534998,84.1306684 383.270668,84.5466642 383.08,85.032 C382.889332,85.5173358 382.794,86.0373306 382.794,86.592 C382.794,87.1813363 382.884999,87.7229975 383.067,88.217 C383.249001,88.7110025 383.508998,89.1356649 383.847,89.491 C384.185002,89.8463351 384.583664,90.1236657 385.043,90.323 C385.502336,90.5223343 386.009331,90.622 386.564,90.622 C387.118669,90.622 387.634331,90.5223343 388.111,90.323 C388.587669,90.1236657 388.994998,89.8506684 389.333,89.504 C389.671002,89.1573316 389.935332,88.7413358 390.126,88.256 C390.316668,87.7706642 390.412,87.2333363 390.412,86.644 C390.412,86.0719971 390.316668,85.5390025 390.126,85.045 C389.935332,84.5509975 389.671002,84.1306684 389.333,83.784 C388.994998,83.4373316 388.592002,83.1643343 388.124,82.965 C387.655998,82.7656657 387.144669,82.666 386.59,82.666 Z M396.704,81.21 L396.704,82.51 C397.172002,81.9379971 397.639998,81.5350012 398.108,81.301 C398.576002,81.0669988 399.147997,80.95 399.824,80.95 C400.48267,80.95 401.089331,81.084332 401.644,81.353 C402.198669,81.621668 402.623332,81.9813311 402.918,82.432 C403.126001,82.7786684 403.277666,83.1686645 403.373,83.602 C403.468334,84.0353355 403.516,84.6073298 403.516,85.318 L403.516,92 L401.67,92 L401.67,85.63 C401.67,85.0579971 401.644,84.6203349 401.592,84.317 C401.54,84.0136652 401.444667,83.7493345 401.306,83.524 C400.941998,82.9173303 400.300671,82.614 399.382,82.614 C398.445995,82.614 397.765669,82.9303302 397.341,83.563 C396.916331,84.1956698 396.704,85.213993 396.704,86.618 L396.704,92 L394.858,92 L394.858,81.21 L396.704,81.21 Z" id="path-1"></path>
    </defs>
    <g id="GIF-Team-Portal" stroke="none" stroke-width="1" fill="none" fill-rule="evenodd">
        <g id="logo-kambria" fill-rule="nonzero">
            <g id="AcceleratingOpenInnovation">
                <use fill="#000000" xlink:href="#path-1"></use>
                <use fill="#1AEEC2" xlink:href="#path-1"></use>
            </g>
            <g id="34830961-0-KAM-Logo-C-Alt-Horz">
                <path d="M85.36529,41.7619193 L73.5509334,42.0525134 L73.4546682,42.0525134 L73.3365247,42.0525134 L73.1746242,42.0877369 L73.0608564,42.1229604 L72.8595747,42.2110193 L72.7895637,42.2506457 C72.7167328,42.2909529 72.6478712,42.3381294 72.5839064,42.3915398 L61.4827869,51.6377148 L44.9426876,41.9996781 L44.9426876,32.9736501 L61.3952731,34.4794558 L61.5527979,34.4794558 C61.6227418,34.4838175 61.692887,34.4838175 61.7628309,34.4794558 L61.8197148,34.4794558 L61.8415933,34.4794558 C61.9337278,34.4612419 62.024404,34.4362242 62.1128859,34.4046058 L62.1785212,34.3737852 L62.3185432,34.3033382 L70.2560406,29.7462948 L83.2868383,35.4084762 C84.0867414,35.7549901 85.0143572,35.3834069 85.3587263,34.5785219 C85.7030954,33.7736369 85.3338123,32.8402436 84.5339093,32.4937296 L73.682204,27.7825833 L80.3857574,23.9344134 C81.1421612,23.500359 81.4056551,22.531483 80.9742874,21.7703681 C80.5429198,21.0092533 79.5800408,20.7441183 78.823637,21.1781726 L62.686101,30.4243476 L60.5726439,18.7785701 L73.6078173,16.1368058 C74.1815042,16.0459767 74.659396,15.6457191 74.8522618,15.0945231 C75.0451276,14.5433271 74.9218608,13.9300932 74.5312713,13.4976437 C74.1406818,13.0651943 73.5457664,12.8832774 72.982094,13.0239269 L61.8984772,15.2870383 L66.1866511,7.96935122 C66.4727318,7.48092878 66.4781239,6.87603501 66.2007962,6.38252754 C65.9234684,5.88902008 65.4055536,5.58187444 64.8421451,5.57678943 C64.2787367,5.57170441 63.7554298,5.86945256 63.4693491,6.35787501 L57.7065685,16.198447 C57.6502026,16.2933598 57.6033005,16.3936475 57.5665465,16.4978469 C57.2469509,16.8570601 57.108312,17.3436963 57.1902373,17.8187291 L59.6099926,31.1420269 L44.9426876,29.7991301 L44.9426876,12.8081828 L55.4049568,4.16080772 C56.0128723,3.59195191 56.0794547,2.64666757 55.557352,1.99722272 C55.0352493,1.34777788 54.1026367,1.21580517 53.4227703,1.69516105 L44.9645661,8.68703052 L44.9645661,1.50583461 C44.9203654,0.661668243 44.2272355,0 43.3871307,0 C42.5470259,0 41.853896,0.661668243 41.8096953,1.50583461 L41.8096953,1.50583461 L41.8096953,19.4125935 L30.971117,15.9342705 L34.4979213,3.36387549 C34.7395838,2.52129947 34.256675,1.64113034 33.4193142,1.39796266 C32.5819535,1.15479498 31.7072323,1.64071141 31.4655697,2.4832874 L28.4419696,13.2440739 L23.7206026,6.23018974 C23.2372775,5.50068667 22.2577465,5.30356031 21.5327588,5.78989569 C20.8077712,6.27623106 20.611865,7.26186286 21.0951901,7.99136592 L27.7199811,17.8319379 L27.7768651,17.9067879 L27.8512518,17.9992496 L27.973771,18.118129 L28.0612848,18.1973819 C28.1198443,18.2410834 28.1812407,18.2807983 28.2450636,18.3162613 L28.3150747,18.3602907 C28.3890275,18.3956314 28.4650074,18.4265067 28.5426104,18.4527525 L41.7965682,22.7103959 L41.7965682,41.9688575 L33.6621649,46.6844068 L26.7310757,32.0050032 C26.7310757,32.0050032 26.7310757,32.0050032 26.7091973,31.9741827 C26.6532451,31.857029 26.582664,31.7475388 26.4991643,31.6483651 L26.4729102,31.6483651 C26.4576687,31.6286161 26.4400286,31.6108662 26.4204019,31.5955298 C26.3332231,31.5069983 26.2363376,31.4287117 26.1316065,31.3621739 L26.0878496,31.3313534 L18.1591037,26.7434894 L16.4088286,12.574827 C16.3384809,12.0124726 15.9753215,11.5305995 15.4561489,11.3107247 C14.9369764,11.0908499 14.3406654,11.1663775 13.8918405,11.508857 C13.4430157,11.8513366 13.2098642,12.4087372 13.280212,12.9710916 L14.7548187,24.7709721 L8.06001661,20.9139962 C7.30919169,20.5296381 6.39072837,20.8057719 5.97252692,21.5415949 C5.55432547,22.2774179 5.78355459,23.2139876 6.49352044,23.6702369 L22.5960509,32.9560384 L13.700278,40.7052136 L4.80012933,30.7545682 C4.21772257,30.1028787 3.22055997,30.0496546 2.57290433,30.6356888 C1.92524868,31.2217229 1.872354,32.2250961 2.45476076,32.8767855 L10.0203247,41.3216253 L1.57524755,41.3216253 C0.705262349,41.3216253 0,42.0312802 0,42.9066838 C0,43.7820875 0.705262349,44.4917424 1.57524755,44.4917424 L12.9301569,44.4917424 C13.0404611,44.4913735 13.1504339,44.47957 13.2583335,44.4565189 C13.7334508,44.5552542 14.2271292,44.4249583 14.5929182,44.1042837 L24.7707677,35.2367615 L30.8967304,48.295883 L15.6693374,57.1281816 L4.29254956,51.6597295 C3.51583065,51.3358247 2.62307781,51.6808869 2.26159805,52.4447223 C1.90011828,53.2085577 2.19660561,54.1234519 2.9360864,54.5260437 L12.3744446,59.0654754 L6.46726632,62.4909631 C5.71327917,62.9286649 5.45468299,63.8985266 5.88967558,64.6572097 C6.32466817,65.4158929 7.28852669,65.6760997 8.04251386,65.2383979 L16.557602,60.2982987 L16.557602,60.2982987 L23.9350113,56.0186406 L25.4883804,67.5807622 L12.6938698,69.7822325 C11.8728309,69.9655516 11.3384997,70.7640285 11.4784627,71.5984742 C11.6184257,72.4329198 12.3835996,73.010705 13.2189523,72.9127231 L24.1581714,71.0458764 L19.905003,78.3063252 C19.4627606,79.0613609 19.7125411,80.0341794 20.4629033,80.4791762 C21.2132655,80.9241731 22.1800625,80.672837 22.622305,79.9178014 L28.6169971,69.6765619 L28.6563783,69.5885031 L28.7088865,69.4784296 C28.7290101,69.4280043 28.7465361,69.3765683 28.7613948,69.3243267 C28.775066,69.2853254 28.7867497,69.2456473 28.7964003,69.2054473 C28.8094503,69.1341285 28.8182175,69.0620832 28.8226544,68.9897032 C28.8250306,68.9618691 28.8250306,68.9338814 28.8226544,68.9060473 C28.8313574,68.8226206 28.8313574,68.7385064 28.8226544,68.6550797 L26.8929762,54.288285 L43.3586887,44.7515159 L50.1847614,48.7141623 L41.1708449,62.6934983 C41.1590324,62.7101186 41.1487785,62.7278062 41.1402151,62.7463336 L41.0920825,62.8343924 C41.0590636,62.8980528 41.0312588,62.9643165 41.0089445,63.0325247 C41.0089445,63.0325247 41.0089445,63.0633453 40.987066,63.0809571 C40.9891325,63.088148 40.9891325,63.0957808 40.987066,63.1029718 C40.9597543,63.1934988 40.9407139,63.2863459 40.9301821,63.380357 C40.9301821,63.4067747 40.9301821,63.4287894 40.9301821,63.4508041 C40.925819,63.5035482 40.925819,63.5565658 40.9301821,63.6093099 L41.1708449,72.8026496 L30.1091066,81.7406188 C29.4300348,82.2889619 29.3213069,83.2874069 29.8662559,83.9707081 C30.411205,84.6540093 31.4034699,84.7634145 32.0825417,84.2150713 L41.2977398,76.769699 L41.5427784,84.5276801 C41.6051849,85.3773101 42.3222257,86.0263411 43.1684694,85.9991777 C44.0147131,85.9720143 44.6891858,85.2783173 44.6976491,84.4264125 L44.1025556,65.7447361 L55.3261944,69.3067149 L51.5674787,82.1500922 C51.3833512,82.7020436 51.5147689,83.311141 51.9097758,83.7365781 C52.3047828,84.1620152 52.8997898,84.335304 53.4595611,84.1879349 C54.0193323,84.0405657 54.4537545,83.5962625 54.5910789,83.0306803 L57.7984579,72.1422086 L62.2266538,79.3806427 C62.5221142,79.8627731 63.0507523,80.149672 63.6134352,80.1332673 C64.1761182,80.1168626 64.687361,79.7996466 64.9545836,79.3011115 C65.2218061,78.8025764 65.2044108,78.1984616 64.9089503,77.7163312 L58.9623908,67.9858328 C58.9052074,67.8919087 58.8376875,67.8047677 58.7611092,67.7260593 C58.5964349,67.2664635 58.2271252,66.9111523 57.7634524,66.7662182 L44.9251849,62.6890954 L52.9195662,50.3344444 L69.3415219,59.8976311 L70.334803,73.1680937 C70.4412107,74.0070322 71.1818718,74.6152072 72.0200198,74.5518666 C72.8581677,74.4885261 73.5002417,73.7758548 73.4809224,72.9303349 L72.6495417,61.826119 L78.5260902,65.2516067 C79.0138344,65.5355367 79.6150658,65.5360697 80.1033065,65.253005 C80.5915471,64.9699404 80.8926216,64.4462822 80.8931181,63.8792876 C80.8936146,63.312293 80.5934576,62.7881018 80.1057134,62.5041719 L71.6300065,57.5684756 L71.6300065,57.5684756 L64.3969948,53.3548616 L73.4196627,45.8698628 L82.0178889,55.6487936 C82.5942542,56.3053462 83.5904371,56.3674409 84.242926,55.787486 C84.8954148,55.2075312 84.9571253,54.2051437 84.3807602,53.548591 L77.016478,45.1830041 L85.435301,44.9804688 C86.3185776,44.9610153 87.0189422,44.2247484 86.9996092,43.3359705 C86.9802762,42.4471927 86.2485666,41.742466 85.36529,41.7619193 L85.36529,41.7619193 Z" id="Path" fill="#1AEEC2"></path>
                <polygon id="Path" fill="#FFFFFF" points="128.62791 61 113.08858 44.1662106 113.08858 61 106 61 106 24 113.08858 24 113.08858 42.810351 127.816779 24.0572278 136.523213 24.0572278 121.296873 43.1581202 138 61"></polygon>
                <path d="M148,61 L166.648229,24 L167.347429,24 L186,61 L178.434743,61 L175.594514,55.1815583 L158.370743,55.1815583 L155.578286,61 L148,61 Z M161.762514,49.0060758 L172.185371,49.0060758 L167,37.8187991 L161.762514,49.0060758 Z" id="Shape" fill="#FFFFFF"></path>
                <polygon id="Path" fill="#FFFFFF" points="237 24 237 61 229.982985 61 229.982985 42.2707887 218.484698 56.1909697 207.038875 42.2707887 207.038875 61 200 61 200 24 200.437197 24 218.458466 45.3607339 236.540943 24"></polygon>
                <path d="M282.356677,46.8740547 C281.9272,45.8930552 281.344976,44.9895252 280.632607,44.1985405 C279.963805,43.4448794 279.166392,42.8216104 278.279252,42.3591246 C277.456307,41.922458 276.556906,41.6562544 275.632805,41.5758326 C276.481992,41.5507071 277.306866,41.2806657 278.012021,40.7969411 C278.728529,40.3094172 279.357026,39.6990123 279.869706,38.9927293 C280.38002,38.2787744 280.786511,37.4932181 281.076555,36.6604554 C281.356119,35.9004426 281.502032,35.0959979 281.507572,34.2841764 C281.575452,32.5375926 281.301439,30.7947279 280.70157,29.1575744 C280.215733,27.9280307 279.431015,26.8451696 278.421488,26.011205 C277.432877,25.2353287 276.284932,24.698222 275.063862,24.4402205 C273.711438,24.1418408 272.331275,23.9942919 270.947645,24.0001689 L255,24 L255,47.7629591 L261.92645,47.7629591 L261.92645,45.3250728 L270.977816,45.3250728 C272.558214,45.3250728 273.800981,45.7475224 274.706117,46.5924216 C275.591759,47.3785596 276.093172,48.5231413 276.076753,49.721189 C276.07204,50.3376146 275.950559,50.9472874 275.719008,51.5165998 C275.493086,52.1012141 275.178954,52.6461351 274.788011,53.1315894 C274.404681,53.6082135 273.93306,54.0029888 273.400134,54.2933259 C272.883463,54.5821188 272.30389,54.7334541 271.714856,54.7333775 L269.07703,54.7333775 L269.07703,60.9997133 L271.714856,60.9997133 C273.192422,61.0084138 274.664713,60.8190405 276.093993,60.4364472 C277.407341,60.1011881 278.63284,59.4763461 279.684369,58.6058322 C280.744836,57.691441 281.575432,56.5310915 282.106687,55.2218349 C282.7428,53.5975158 283.045022,51.8570171 282.994583,50.1084345 C283.01195,48.9960446 282.794379,47.8928908 282.356677,46.8740547 L282.356677,46.8740547 Z M274.344063,36.0795872 C274.165928,36.6211564 273.897638,37.1273004 273.550991,37.5757629 C273.198882,38.022684 272.758237,38.3885872 272.257938,38.649489 C271.694906,38.9302943 271.074117,39.0691269 270.447665,39.0543365 L261.939381,39.0543365 L261.939381,30.253299 L270.947645,30.2533031 C271.440328,30.2524869 271.92571,30.3748651 272.361382,30.6097449 C273.261879,31.0831711 273.957802,31.8815142 274.313891,32.8496079 C274.510887,33.3504578 274.611849,33.8852694 274.611293,34.4249929 C274.608231,34.9874606 274.51804,35.5458931 274.344063,36.0795872 L274.344063,36.0795872 Z" id="Shape" fill="#FFFFFF"></path>
                <path d="M306.057624,61 L299,61 L299,24.000985 L315.761858,24.000985 C317.530177,23.9799285 319.286333,24.2966408 320.936571,24.9342142 C322.444454,25.5236738 323.812499,26.4234001 324.95257,27.5754288 C326.081009,28.7350316 326.964729,30.1109374 327.550899,31.6208892 C328.186225,33.2547715 328.503569,34.9956007 328.485771,36.7492476 C328.542837,39.3443512 327.81276,41.8956488 326.392185,44.0654122 C325.047599,46.114314 323.096712,47.6891752 320.813677,48.5686831 C323.918212,52.6772392 326.98032,56.8210115 330,61 L321.564208,61 C320.101185,59.0807174 318.660107,57.1438266 317.240974,55.1893278 C315.821842,53.234829 314.415876,51.2465813 313.023078,49.2245848 L306.057624,49.2245848 L306.057624,61 Z M306.057624,42.9517 L315.753079,42.9517 C316.431392,42.9432386 317.102924,42.8150921 317.736939,42.5731259 C318.422279,42.3176633 319.047081,41.921887 319.57157,41.4109915 C320.12739,40.85027 320.573948,40.1904002 320.888291,39.4652967 C321.257016,38.6024208 321.43663,37.670173 321.414979,36.7316395 C321.404746,36.0871285 321.337179,35.4448195 321.213082,34.8123569 C321.082041,34.0610172 320.814235,33.3402847 320.42305,32.6861791 C319.996182,31.9862631 319.41136,31.3966986 318.715702,30.9649876 C317.814726,30.4532171 316.78723,30.2089438 315.753079,30.2606637 L306.057624,30.2606637 L306.057624,42.9517 Z" id="Shape" fill="#FFFFFF"></path>
                <polygon id="Path" fill="#FFFFFF" points="353 61 346 61 346 24 353 24"></polygon>
                <path d="M368,61 L386.635367,24 L387.334247,24 L406,61 L398.403473,61 L395.564542,55.1815583 L378.387708,55.1815583 L375.596527,61 L368,61 Z M381.756226,49.0060758 L392.17432,49.0060758 L386.991318,37.8187991 L381.756226,49.0060758 Z" id="Shape" fill="#FFFFFF"></path>
            </g>
        </g>
    </g>
</svg>